# xmcd
#
# Track frame offsets: 
#        150
#        65467
#        123533
#        181215
#        234603
#
# Disc length: 3571 seconds
#
# Revision: 2
# Processed by: cddbd v1.5.2PL0 Copyright (c) Steve Scherf et al.
# Submitted via: ExactAudioCopy v1.0b1
#
DISCID=400df105
DTITLE=陈林玉 - 祥林嫂
DYEAR=1900
DGENRE=Folklore
TTITLE0=LA
TTITLE1=n
TTITLE2=\\]Pq
TTITLE3=Td
TTITLE4=R
EXTD=
EXTT0=
EXTT1=
EXTT2=
EXTT3=
EXTT4=
PLAYORDER=
